<svg width="0" height="0" class="hero__icon">
  <symbol fill="none" xmlns="http://www.w3.org/2000/svg" viewBox="0 0 22 22" id="guarantee">
    <path fill-rule="evenodd" clip-rule="evenodd" d="M18.703 4.935l-7.56-2.73a.42.42 0 00-.286 0l-7.56 2.73a.42.42 0 00-.277.395V11c0 4.452 2.66 7.407 7.871 8.806a.42.42 0 00.22-.001c5.21-1.436 7.869-4.39 7.869-8.805V5.33a.42.42 0 00-.277-.395zM8.1 10.265a.42.42 0 01.593.015l1.7 1.786 3.567-3.87a.42.42 0 01.618.569l-3.872 4.2a.42.42 0 01-.613.005l-2.008-2.111a.42.42 0 01.014-.594z" fill="#1565D8"></path>
  </symbol>
  <symbol fill="none" xmlns="http://www.w3.org/2000/svg" viewBox="0 0 22 22" id="payment">
    <path fill-rule="evenodd" clip-rule="evenodd" d="M11.663 12.618c.522-1.135.04-2.07-1.29-2.65l-2.203-.91a2.097 2.097 0 00-2.13.317l-2.026 1.66-.059.59-.095 4.835v.84h2.452l5 1.42c.632.18 1.31.054 1.834-.34 3.295-2.477 5.497-4.15 5.83-4.46.808-.75 1.127-1.586.55-2.41-.465-.666-1.25-.737-2.223-.296l-4.732 2.406-1.331-.423a1.67 1.67 0 00.423-.579z" fill="#1565D8"></path>
    <path opacity=".3" fill-rule="evenodd" clip-rule="evenodd" d="M16.21 3.86H15.2v-.21a.63.63 0 10-1.26 0v.21h-.198a1.47 1.47 0 00-1.47 1.472v.421a1.47 1.47 0 001.47 1.472h1.668a.21.21 0 01.21.21v.42a.21.21 0 01-.21.21h-1.928a.63.63 0 00-1.21.226l-.012.386a.63.63 0 00.63.65h1.05v.203a.63.63 0 101.26 0v-.204h.21a1.47 1.47 0 001.47-1.47v-.42a1.47 1.47 0 00-1.47-1.472h-1.668a.21.21 0 01-.21-.21v-.422a.21.21 0 01.21-.21h1.921a.63.63 0 001.178-.312v-.32a.63.63 0 00-.63-.63zM3.44 9.95h.21v7.98h-.21a.63.63 0 000 1.26h.84a.63.63 0 00.63-.63V9.32a.63.63 0 00-.63-.63h-.84a.63.63 0 100 1.26z" fill="#1565D8"></path>
  </symbol>
  <symbol fill="none" xmlns="http://www.w3.org/2000/svg" viewBox="0 0 22 22" id="quality">
    <path fill-rule="evenodd" clip-rule="evenodd" d="M6.534 8.744c1.104-1.57 1.793-3.37 2.069-5.407a.505.505 0 01.352-.414c1.902-.588 2.982.346 2.964 2.478-.003.414-.022.782-.063 1.344-.09 1.257-.083 1.6.057 1.83.136.222.575.298 1.613.1a24.07 24.07 0 001.02-.216c.16-.038 1.318-.32 1.614-.384.565-.122.97-.174 1.326-.152.964.06 1.476.68 1.565 1.87.155 2.096-.326 6.306-.806 7.856-.49 1.584-1.346 2.182-3.4 2.218-1.321.024-3.353.024-6.104 0a4.887 4.887 0 01-1.905-.406c.16-.33.248-.698.248-1.087V10.31c0-.592-.206-1.136-.55-1.566z" fill="#1565D8"></path>
    <path opacity=".3" fill-rule="evenodd" clip-rule="evenodd" d="M3.525 8.798C2.683 8.798 2 9.475 2 10.31v8.064c0 .835.683 1.512 1.525 1.512h1.017c.842 0 1.525-.677 1.525-1.512V10.31c0-.835-.683-1.512-1.525-1.512H3.525z" fill="#1565D8"></path>
  </symbol>
  <symbol fill="none" xmlns="http://www.w3.org/2000/svg" viewBox="0 0 18 17" id="close">
    <path d="M9 6.695L15.222.472a1.1 1.1 0 011.641 1.46l-.085.096-6.223 6.222 6.223 6.222a1.1 1.1 0 01.085 1.46l-.085.096a1.1 1.1 0 01-1.46.085l-.096-.085L9 9.805l-6.222 6.223a1.1 1.1 0 01-1.46.085l-.096-.085a1.1 1.1 0 01-.085-1.46l.085-.096L7.445 8.25 1.222 2.028a1.1 1.1 0 01-.085-1.46l.085-.096a1.1 1.1 0 011.46-.085l.096.085L9 6.695 15.222.472 9 6.695z" fill="#183B56"></path>
  </symbol>
    <symbol fill="none" xmlns="http://www.w3.org/2000/svg" viewBox="0 0 13 13" id="arrow-right">
    <path d="M5.57 1.082c-.273.273-.246.684 0 .957l3.31 3.117H1.03a.648.648 0 00-.656.657v.875c0 .382.273.656.656.656h7.85l-3.31 3.144a.713.713 0 000 .957l.602.602c.273.246.683.246.93 0l5.332-5.332c.246-.246.246-.656 0-.93L7.102.48c-.247-.246-.657-.246-.93 0l-.602.602z" fill="#1565D8"></path>
  </symbol>
    <symbol fill="none" xmlns="http://www.w3.org/2000/svg" viewBox="0 0 23 21" id="shopping">
    <path d="M20.625 12.297l1.836-8.125C22.578 3.586 22.148 3 21.523 3H6.211l-.352-1.719C5.742.851 5.352.5 4.922.5H.938A.925.925 0 000 1.438v.625C0 2.609.39 3 .938 3h2.695l2.773 13.438a2.183 2.183 0 00-1.093 1.875c0 1.21.976 2.187 2.187 2.187 1.172 0 2.188-.977 2.188-2.188 0-.585-.274-1.132-.665-1.562h8.165c-.391.43-.625.977-.625 1.563 0 1.21.976 2.187 2.187 2.187 1.172 0 2.188-.977 2.188-2.188 0-.859-.508-1.601-1.25-1.953l.195-.937c.156-.586-.313-1.172-.899-1.172H8.516L8.242 13h11.445c.43 0 .82-.273.938-.703z" fill="#1565D8"></path>
  </symbol>
    <symbol fill="none" xmlns="http://www.w3.org/2000/svg" viewBox="0 0 28 28" id="plus">
    <path d="M26 11h-9V2c0-1.063-.938-2-2-2h-2c-1.125 0-2 .938-2 2v9H2c-1.125 0-2 .938-2 2v2c0 1.125.875 2 2 2h9v9c0 1.125.875 2 2 2h2c1.063 0 2-.875 2-2v-9h9c1.063 0 2-.875 2-2v-2c0-1.063-.938-2-2-2z" fill="#fff"></path>
  </symbol>
    <symbol fill="none" xmlns="http://www.w3.org/2000/svg" viewBox="0 0 80 70" id="quote">
    <path d="M72.5 35H60V25c0-5.469 4.375-10 10-10h1.25c2.031 0 3.75-1.563 3.75-3.75v-7.5C75 1.719 73.281 0 71.25 0H70C56.094 0 45 11.25 45 25v37.5c0 4.219 3.281 7.5 7.5 7.5h20c4.063 0 7.5-3.281 7.5-7.5v-20c0-4.063-3.438-7.5-7.5-7.5zm-45 0H15V25c0-5.469 4.375-10 10-10h1.25c2.031 0 3.75-1.563 3.75-3.75v-7.5C30 1.719 28.281 0 26.25 0H25C11.094 0 0 11.25 0 25v37.5C0 66.719 3.281 70 7.5 70h20c4.063 0 7.5-3.281 7.5-7.5v-20c0-4.063-3.438-7.5-7.5-7.5z" fill="#FAAD13"></path>
  </symbol>
  </svg>
